# xmcd CD database file
#
# Track frame offsets:
#	150
#	16306
#	48705
#	84713
#	113238
#	148189
#	169045
#	214510
#	236590
#
# Disc length: 3567 seconds
#
# Revision: 0
# Processed by: cddbd v1.5.1PL2 Copyright (c) Steve Scherf et al.
# Submitted via: CDex 1.50
#
DISCID=7a0ded09
DTITLE=Dick Hindman Paul Warburton Colin Bailey - Secret Garden [CD 1)
DYEAR=1984
DGENRE=Jazz
TTITLE0=Sweet and Lovely
TTITLE1=Sombody Somewhere
TTITLE2=Paulo
TTITLE3=Lost in a Dream
TTITLE4=Little Nipper
TTITLE5=If You Remember
TTITLE6=You've Changed
TTITLE7=John's Step
TTITLE8=Odiyan
EXTD=YEAR: 1984
EXTT0=
EXTT1=
EXTT2=
EXTT3=
EXTT4=
EXTT5=
EXTT6=
EXTT7=
EXTT8=
PLAYORDER=
